<svg width="71" height="35" viewBox="0 0 71 35" fill="none" xmlns="http://www.w3.org/2000/svg">
<path d="M0.553711 18.3555V17.2519C0.553711 14.2823 1.17572 11.6889 2.41975 9.46669C3.67381 7.24951 5.47464 5.53396 7.81723 4.33006C10.1698 3.11613 12.9589 2.50415 16.1843 2.50415C20.6638 2.50415 24.1902 3.61776 26.7585 5.83493C29.3269 8.05713 30.8317 11.0719 31.2732 14.8842H22.2439C21.5868 11.5835 19.5352 9.92818 16.084 9.92818C14.0223 9.92818 12.3971 10.5803 11.2082 11.8745C10.0143 13.1586 9.42242 15.1401 9.42242 17.8137C9.42242 20.4924 10.0143 22.4688 11.2082 23.7529C12.3971 25.0371 14.0223 25.6792 16.084 25.6792C19.5352 25.6792 21.6069 24.0288 22.3041 20.7231H31.3334C30.8919 24.5505 29.3871 27.5753 26.8187 29.7925C24.2504 32.0147 20.7039 33.1233 16.1843 33.1233C12.9589 33.1233 10.1698 32.5063 7.81723 31.2773C5.47464 30.0483 3.67381 28.3378 2.41975 26.1407C1.17572 23.9335 0.553711 21.3401 0.553711 18.3555Z" fill="black"/>
<path d="M36.382 15.3882L47.2159 2.73887C47.4059 2.5165 47.6283 2.33051 47.879 2.17889C48.1296 2.02726 48.3985 1.92012 48.6836 1.85745C48.9706 1.79276 49.2597 1.77658 49.5508 1.80488C49.842 1.83521 50.1209 1.91001 50.3898 2.02928L65.5803 8.85834C65.6369 8.88664 65.649 8.92707 65.6167 8.98165L56.7438 23.3372L50.6021 24.7099L36.3981 15.5155C36.3436 15.4792 36.3395 15.4367 36.382 15.3882Z" fill="#7C3AED"/>
<path d="M36.382 15.3882L47.2158 2.73887C47.4059 2.5165 47.6283 2.33051 47.8789 2.17889C48.1296 2.02726 48.3985 1.92012 48.6835 1.85745C48.9706 1.79275 49.2597 1.77658 49.5508 1.80488C49.8419 1.83521 50.1209 1.91001 50.3898 2.02929L65.5803 8.85833C65.6369 8.88663 65.649 8.92706 65.6167 8.98165L56.7438 23.3372L50.6021 24.7099L36.3981 15.5155C36.3436 15.4791 36.3395 15.4367 36.382 15.3882Z" stroke="black" stroke-width="0.337723" stroke-miterlimit="10"/>
<path d="M37.5969 5.85439L59.9581 0.856934L65.18 24.2188L42.8208 29.2163L37.5969 5.85439Z" fill="white"/>
<path d="M37.5969 5.85449L59.9581 0.857036L65.18 24.2189L42.8208 29.2164L37.5969 5.85449Z" stroke="black" stroke-width="0.337723" stroke-miterlimit="10"/>
<path d="M36.3557 15.6247L40.6355 34.7634L69.9854 28.2093L65.7036 9.07055C65.6955 9.03619 65.6753 9.01597 65.641 9.00788C65.6086 8.9998 65.5803 9.00788 65.5581 9.03417L54.894 21.453C53.5981 21.3823 52.4094 21.6228 51.3541 22.2394L36.475 15.5337C36.4446 15.5175 36.4143 15.5195 36.388 15.5418C36.3597 15.562 36.3496 15.5903 36.3557 15.6247Z" fill="#7C3AED"/>
<path d="M36.3557 15.6247L40.6355 34.7634L69.9854 28.2093L65.7036 9.07055C65.6955 9.03619 65.6753 9.01597 65.6409 9.00788C65.6086 8.9998 65.5803 9.00788 65.558 9.03417L54.894 21.453C53.5981 21.3822 52.4094 21.6228 51.3541 22.2394L36.475 15.5337C36.4446 15.5175 36.4143 15.5195 36.388 15.5418C36.3597 15.562 36.3496 15.5903 36.3557 15.6247Z" stroke="black" stroke-width="0.337723" stroke-miterlimit="10"/>
<path d="M51.3521 22.2375L40.6355 34.7716" stroke="black" stroke-width="0.337723" stroke-miterlimit="10"/>
<path d="M54.894 21.447L69.9855 28.2093" stroke="black" stroke-width="0.337723" stroke-miterlimit="10"/>
</svg>
