<svg width="71" height="35" viewBox="0 0 71 35" fill="none" xmlns="http://www.w3.org/2000/svg">
<path d="M0.553711 17.9988V16.8952C0.553711 13.9256 1.17572 11.3322 2.41975 9.11C3.67381 6.89282 5.47464 5.17727 7.81723 3.97337C10.1698 2.75944 12.9589 2.14746 16.1843 2.14746C20.6638 2.14746 24.1902 3.26107 26.7585 5.47824C29.3269 7.70044 30.8317 10.7152 31.2732 14.5275H22.2439C21.5868 11.2269 19.5352 9.5715 16.084 9.5715C14.0223 9.5715 12.3971 10.2236 11.2082 11.5178C10.0143 12.802 9.42242 14.7834 9.42242 17.457C9.42242 20.1357 10.0143 22.1121 11.2082 23.3963C12.3971 24.6804 14.0223 25.3225 16.084 25.3225C19.5352 25.3225 21.6069 23.6721 22.3041 20.3664H31.3334C30.8919 24.1938 29.3871 27.2186 26.8187 29.4358C24.2504 31.658 20.7039 32.7666 16.1843 32.7666C12.9589 32.7666 10.1698 32.1496 7.81723 30.9206C5.47464 29.6916 3.67381 27.9811 2.41975 25.784C1.17572 23.5768 0.553711 20.9834 0.553711 17.9988Z" fill="white"/>
<path d="M36.382 15.0315L47.2159 2.38219C47.4059 2.15981 47.6283 1.97382 47.879 1.8222C48.1296 1.67057 48.3985 1.56343 48.6836 1.50076C48.9706 1.43607 49.2597 1.41989 49.5508 1.44819C49.842 1.47852 50.1209 1.55332 50.3898 1.6726L65.5803 8.50165C65.6369 8.52995 65.649 8.57038 65.6167 8.62497L56.7438 22.9805L50.6021 24.3532L36.3981 15.1589C36.3436 15.1225 36.3395 15.08 36.382 15.0315Z" fill="#7C3AED"/>
<path d="M36.382 15.0315L47.2158 2.38219C47.4059 2.15981 47.6283 1.97382 47.8789 1.8222C48.1296 1.67057 48.3985 1.56343 48.6835 1.50076C48.9706 1.43607 49.2597 1.41989 49.5508 1.4482C49.8419 1.47852 50.1209 1.55332 50.3898 1.6726L65.5803 8.50164C65.6369 8.52994 65.649 8.57037 65.6167 8.62496L56.7438 22.9805L50.6021 24.3532L36.3981 15.1588C36.3436 15.1225 36.3395 15.08 36.382 15.0315Z" stroke="black" stroke-width="0.337723" stroke-miterlimit="10"/>
<path d="M37.5969 5.4977L59.9581 0.500244L65.18 23.8622L42.8208 28.8596L37.5969 5.4977Z" fill="white"/>
<path d="M37.5969 5.4978L59.9581 0.500346L65.18 23.8622L42.8208 28.8597L37.5969 5.4978Z" stroke="black" stroke-width="0.337723" stroke-miterlimit="10"/>
<path d="M36.3557 15.268L40.6355 34.4067L69.9854 27.8526L65.7036 8.71387C65.6955 8.6795 65.6753 8.65928 65.641 8.65119C65.6086 8.64311 65.5803 8.6512 65.5581 8.67748L54.894 21.0963C53.5981 21.0256 52.4094 21.2661 51.3541 21.8827L36.475 15.177C36.4446 15.1608 36.4143 15.1629 36.388 15.1851C36.3597 15.2053 36.3496 15.2336 36.3557 15.268Z" fill="#7C3AED"/>
<path d="M36.3557 15.268L40.6355 34.4067L69.9854 27.8526L65.7036 8.71386C65.6955 8.6795 65.6753 8.65928 65.6409 8.65119C65.6086 8.64311 65.5803 8.65119 65.558 8.67748L54.894 21.0963C53.5981 21.0255 52.4094 21.2661 51.3541 21.8827L36.475 15.177C36.4446 15.1608 36.4143 15.1628 36.388 15.1851C36.3597 15.2053 36.3496 15.2336 36.3557 15.268Z" stroke="black" stroke-width="0.337723" stroke-miterlimit="10"/>
<path d="M51.3521 21.8809L40.6355 34.4149" stroke="black" stroke-width="0.337723" stroke-miterlimit="10"/>
<path d="M54.894 21.0903L69.9855 27.8527" stroke="black" stroke-width="0.337723" stroke-miterlimit="10"/>
</svg>
