<svg width="114" height="115" viewBox="0 0 114 115" fill="none" xmlns="http://www.w3.org/2000/svg">
<path d="M0.785026 49.6925L36.957 7.4592C37.5915 6.71673 38.3339 6.09576 39.1709 5.58952C40.0079 5.08329 40.9056 4.72555 41.8573 4.51631C42.8158 4.30032 43.781 4.24632 44.753 4.34082C45.7249 4.44206 46.6564 4.6918 47.5541 5.09004L98.2718 27.8907C98.4608 27.9852 98.5013 28.1202 98.3933 28.3025L68.7686 76.2325L48.2628 80.8156L0.839024 50.1177C0.65678 49.9962 0.643281 49.8545 0.785026 49.6925Z" fill="#7C3AED"/>
<path d="M0.785027 49.6924L36.9569 7.4592C37.5914 6.71673 38.3339 6.09576 39.1709 5.58952C40.0078 5.08329 40.9055 4.72555 41.8573 4.51631C42.8157 4.30032 43.7809 4.24632 44.7529 4.34082C45.7249 4.44206 46.6563 4.69181 47.5541 5.09004L98.2717 27.8907C98.4607 27.9852 98.5012 28.1202 98.3932 28.3024L68.7685 76.2324L48.2628 80.8155L0.839022 50.1176C0.656778 49.9961 0.643282 49.8544 0.785027 49.6924Z" stroke="black" stroke-width="0.337723" stroke-miterlimit="10"/>
<path d="M4.8418 17.8609L79.5009 1.17554L96.9355 79.1758L22.2832 95.8612L4.8418 17.8609Z" fill="white"/>
<path d="M4.8418 17.8613L79.5008 1.17593L96.9354 79.1761L22.2832 95.8615L4.8418 17.8613Z" stroke="black" stroke-width="0.337723" stroke-miterlimit="10"/>
<path d="M0.697058 50.4819L14.9863 114.382L112.979 92.4991L98.6833 28.5991C98.6563 28.4844 98.5888 28.4169 98.4741 28.3899C98.3661 28.3629 98.2716 28.3899 98.1973 28.4777L62.5924 69.9414C58.2658 69.7052 54.2969 70.5084 50.7735 72.5671L1.09529 50.1781C0.994047 50.1241 0.8928 50.1309 0.805054 50.2051C0.710557 50.2726 0.676808 50.3671 0.697058 50.4819Z" fill="#7C3AED"/>
<path d="M0.697058 50.4818L14.9863 114.382L112.979 92.4991L98.6832 28.5991C98.6562 28.4844 98.5887 28.4169 98.474 28.3899C98.366 28.3629 98.2715 28.3899 98.1972 28.4777L62.5923 69.9414C58.2657 69.7051 54.2968 70.5084 50.7735 72.567L1.0953 50.1781C0.994049 50.1241 0.8928 50.1308 0.805053 50.2051C0.710557 50.2726 0.676808 50.3671 0.697058 50.4818Z" stroke="black" stroke-width="0.337723" stroke-miterlimit="10"/>
<path d="M50.767 72.5608L14.9866 114.409" stroke="black" stroke-width="0.337723" stroke-miterlimit="10"/>
<path d="M62.593 69.9214L112.98 92.4993" stroke="black" stroke-width="0.337723" stroke-miterlimit="10"/>
</svg>
