<svg width="203" height="35" viewBox="0 0 203 35" fill="none" xmlns="http://www.w3.org/2000/svg">
<path d="M0.665039 22.2111V21.3126C0.665039 18.895 1.17142 16.7837 2.18419 14.9746C3.20513 13.1696 4.6712 11.773 6.57831 10.7929C8.49359 9.80461 10.7642 9.3064 13.39 9.3064C17.0368 9.3064 19.9077 10.213 21.9986 12.018C24.0894 13.8271 25.3146 16.2814 25.6739 19.3851H18.3232C17.7882 16.698 16.118 15.3504 13.3083 15.3504C11.6299 15.3504 10.3068 15.8812 9.33893 16.9348C8.367 17.9803 7.88511 19.5934 7.88511 21.77C7.88511 23.9507 8.367 25.5597 9.33893 26.6052C10.3068 27.6506 11.6299 28.1733 13.3083 28.1733C16.118 28.1733 17.8045 26.8298 18.3722 24.1386H25.7229C25.3636 27.2545 24.1384 29.717 22.0476 31.522C19.9567 33.3311 17.0695 34.2336 13.39 34.2336C10.7642 34.2336 8.49359 33.7313 6.57831 32.7308C4.6712 31.7303 3.20513 30.3377 2.18419 28.549C1.17142 26.7522 0.665039 24.6409 0.665039 22.2111Z" fill="black"/>
<path d="M40.9556 34.2336C38.2971 34.2336 36.0102 33.7436 34.0949 32.7635C32.1878 31.7752 30.7217 30.3745 29.7008 28.5654C28.688 26.7604 28.1816 24.6572 28.1816 22.2601V21.28C28.1816 18.8542 28.688 16.747 29.7008 14.9583C30.7217 13.1615 32.1878 11.773 34.0949 10.7929C36.0102 9.80461 38.2971 9.3064 40.9556 9.3064C43.6101 9.3064 45.8888 9.80461 47.7837 10.7929C49.6867 11.773 51.1487 13.1615 52.1614 14.9583C53.1742 16.747 53.6806 18.8542 53.6806 21.28V22.2601C53.6806 24.6572 53.1742 26.7604 52.1614 28.5654C51.1487 30.3745 49.6867 31.7752 47.7837 32.7635C45.8888 33.7436 43.6101 34.2336 40.9556 34.2336ZM40.9556 28.2223C42.6871 28.2223 44.0429 27.6833 45.023 26.6052C46.0113 25.5271 46.5095 23.9017 46.5095 21.721C46.5095 19.577 46.0113 17.9762 45.023 16.9185C44.0429 15.8527 42.6871 15.3177 40.9556 15.3177C39.2241 15.3177 37.8601 15.8527 36.8719 16.9185C35.8918 17.9762 35.4017 19.577 35.4017 21.721C35.4017 23.9017 35.8918 25.5271 36.8719 26.6052C37.8601 27.6833 39.2241 28.2223 40.9556 28.2223Z" fill="black"/>
<path d="M67.3111 24.0082L72.7343 9.89478H80.0361L70.3167 33.6459H64.2074L54.5371 9.89478H61.8879L67.3111 24.0082Z" fill="black"/>
<path d="M105.897 20.3325C105.897 21.4678 105.836 22.4683 105.718 23.3382H87.8307C88.0349 25.1922 88.5985 26.5317 89.5132 27.3566C90.428 28.1733 91.645 28.5817 93.1723 28.5817C94.6629 28.5817 95.7696 28.3163 96.4883 27.7813C97.207 27.2382 97.7298 26.548 98.0565 25.7067H105.489C105.248 27.2096 104.656 28.6103 103.708 29.9048C102.769 31.2035 101.462 32.2489 99.788 33.0412C98.1218 33.8334 96.035 34.2336 93.5317 34.2336C90.8936 34.2336 88.6312 33.7313 86.7363 32.7308C84.8414 31.7303 83.3794 30.3377 82.3585 28.549C81.3457 26.7522 80.8394 24.6409 80.8394 22.2111V21.3126C80.8394 18.895 81.3457 16.7837 82.3585 14.9746C83.3794 13.1696 84.8455 11.773 86.7526 10.7929C88.6679 9.80461 90.9711 9.3064 93.6623 9.3064C96.1983 9.3064 98.375 9.78011 100.196 10.7275C102.026 11.6668 103.431 12.9614 104.411 14.6153C105.399 16.2733 105.897 18.1763 105.897 20.3325ZM93.4827 14.7786C91.9227 14.7786 90.6649 15.1462 89.7093 15.8731C88.7618 16.6041 88.1493 17.7761 87.8797 19.3851H98.7262C98.5383 17.8088 97.9993 16.649 97.109 15.9057C96.2147 15.1543 95.0059 14.7786 93.4827 14.7786Z" fill="black"/>
<path d="M122.886 9.3064C123.572 9.3064 124.16 9.35132 124.65 9.43708C125.14 9.52692 125.536 9.61676 125.842 9.71477V17.1962C125.393 17.1309 124.883 17.0778 124.307 17.0329C123.739 16.992 123.098 16.9675 122.379 16.9675C120.558 16.9675 119.235 17.5066 118.41 18.5847C117.593 19.6628 117.185 21.5046 117.185 24.1059V33.6456H109.965V9.89446H113.558L115.747 17.0655C116.343 14.2232 117.291 12.2222 118.589 11.0542C119.896 9.89037 121.326 9.3064 122.886 9.3064Z" fill="black"/>
<path d="M136.5 0.926758V33.6458H129.378V0.926758H136.5Z" fill="black"/>
<path d="M160.159 9.89464V15.8896H152.008V23.8284C152.008 25.4742 152.286 26.5972 152.841 27.1934C153.397 27.7937 154.446 28.0918 155.994 28.0918C156.864 28.0918 157.648 28.051 158.346 27.9612C159.053 27.8631 159.673 27.7733 160.208 27.6835V33.6457C159.641 33.7642 158.901 33.8908 157.987 34.0214C157.08 34.1603 155.969 34.2338 154.654 34.2338C151.277 34.2338 148.806 33.4742 147.238 31.9469C145.67 30.4237 144.886 28.0428 144.886 24.8085V15.8896H140.133V9.89464H145.098L147.794 2.85425H152.008V9.89464H160.159Z" fill="black"/>
<path d="M182.567 9.89464V15.8896H174.416V23.8284C174.416 25.4742 174.693 26.5972 175.249 27.1934C175.804 27.7937 176.854 28.0918 178.401 28.0918C179.271 28.0918 180.055 28.051 180.754 27.9612C181.46 27.8631 182.081 27.7733 182.616 27.6835V33.6457C182.048 33.7642 181.309 33.8908 180.394 34.0214C179.488 34.1603 178.377 34.2338 177.062 34.2338C173.685 34.2338 171.214 33.4742 169.646 31.9469C168.078 30.4237 167.294 28.0428 167.294 24.8085V15.8896H162.54V9.89464H167.506L170.201 2.85425H174.416V9.89464H182.567Z" fill="black"/>
<path d="M199.878 9.3064C200.564 9.3064 201.152 9.35132 201.642 9.43708C202.132 9.52692 202.528 9.61676 202.834 9.71477V17.1962C202.385 17.1309 201.875 17.0778 201.299 17.0329C200.731 16.992 200.09 16.9675 199.371 16.9675C197.55 16.9675 196.227 17.5066 195.402 18.5847C194.585 19.6628 194.177 21.5046 194.177 24.1059V33.6456H186.957V9.89446H190.55L192.739 17.0655C193.336 14.2232 194.283 12.2222 195.582 11.0542C196.888 9.89037 198.318 9.3064 199.878 9.3064Z" fill="black"/>
</svg>
