<svg width="203" height="34" viewBox="0 0 203 34" fill="none" xmlns="http://www.w3.org/2000/svg">
<path d="M0.665039 21.4686V20.5702C0.665039 18.1526 1.17142 16.0413 2.18419 14.2322C3.20513 12.4272 4.6712 11.0306 6.57831 10.0505C8.49359 9.06218 10.7642 8.56396 13.39 8.56396C17.0368 8.56396 19.9077 9.47056 21.9986 11.2756C24.0894 13.0847 25.3146 15.539 25.6739 18.6427H18.3232C17.7882 15.9556 16.118 14.6079 13.3083 14.6079C11.6299 14.6079 10.3068 15.1388 9.33893 16.1924C8.367 17.2379 7.88511 18.8509 7.88511 21.0276C7.88511 23.2083 8.367 24.8173 9.33893 25.8627C10.3068 26.9082 11.6299 27.4309 13.3083 27.4309C16.118 27.4309 17.8045 26.0873 18.3722 23.3962H25.7229C25.3636 26.5121 24.1384 28.9746 22.0476 30.7796C19.9567 32.5887 17.0695 33.4912 13.39 33.4912C10.7642 33.4912 8.49359 32.9889 6.57831 31.9884C4.6712 30.9879 3.20513 29.5953 2.18419 27.8066C1.17142 26.0098 0.665039 23.8985 0.665039 21.4686Z" fill="white"/>
<path d="M40.9556 33.4912C38.2971 33.4912 36.0102 33.0011 34.0949 32.021C32.1878 31.0328 30.7217 29.632 29.7008 27.8229C28.688 26.0179 28.1816 23.9148 28.1816 21.5176V20.5375C28.1816 18.1118 28.688 16.0046 29.7008 14.2159C30.7217 12.419 32.1878 11.0306 34.0949 10.0505C36.0102 9.06218 38.2971 8.56396 40.9556 8.56396C43.6101 8.56396 45.8888 9.06218 47.7837 10.0505C49.6867 11.0306 51.1487 12.419 52.1614 14.2159C53.1742 16.0046 53.6806 18.1118 53.6806 20.5375V21.5176C53.6806 23.9148 53.1742 26.0179 52.1614 27.8229C51.1487 29.632 49.6867 31.0328 47.7837 32.021C45.8888 33.0011 43.6101 33.4912 40.9556 33.4912ZM40.9556 27.4799C42.6871 27.4799 44.0429 26.9409 45.023 25.8627C46.0113 24.7846 46.5095 23.1593 46.5095 20.9786C46.5095 18.8346 46.0113 17.2338 45.023 16.1761C44.0429 15.1102 42.6871 14.5752 40.9556 14.5752C39.2241 14.5752 37.8601 15.1102 36.8719 16.1761C35.8918 17.2338 35.4017 18.8346 35.4017 20.9786C35.4017 23.1593 35.8918 24.7846 36.8719 25.8627C37.8601 26.9409 39.2241 27.4799 40.9556 27.4799Z" fill="white"/>
<path d="M67.3111 23.2658L72.7343 9.15234H80.0361L70.3167 32.9034H64.2074L54.5371 9.15234H61.8879L67.3111 23.2658Z" fill="white"/>
<path d="M105.897 19.5901C105.897 20.7254 105.836 21.7259 105.718 22.5957H87.8307C88.0349 24.4498 88.5985 25.7892 89.5132 26.6142C90.428 27.4309 91.645 27.8393 93.1723 27.8393C94.6629 27.8393 95.7696 27.5738 96.4883 27.0389C97.207 26.4957 97.7298 25.8056 98.0565 24.9643H105.489C105.248 26.4671 104.656 27.8679 103.708 29.1624C102.769 30.461 101.462 31.5065 99.788 32.2987C98.1218 33.091 96.035 33.4912 93.5317 33.4912C90.8936 33.4912 88.6312 32.9889 86.7363 31.9884C84.8414 30.9879 83.3794 29.5953 82.3585 27.8066C81.3457 26.0098 80.8394 23.8985 80.8394 21.4686V20.5702C80.8394 18.1526 81.3457 16.0413 82.3585 14.2322C83.3794 12.4272 84.8455 11.0306 86.7526 10.0505C88.6679 9.06218 90.9711 8.56396 93.6623 8.56396C96.1983 8.56396 98.375 9.03768 100.196 9.98511C102.026 10.9244 103.431 12.2189 104.411 13.8728C105.399 15.5308 105.897 17.4339 105.897 19.5901ZM93.4827 14.0362C91.9227 14.0362 90.6649 14.4037 89.7093 15.1306C88.7618 15.8616 88.1493 17.0337 87.8797 18.6427H98.7262C98.5383 17.0663 97.9993 15.9066 97.109 15.1633C96.2147 14.4119 95.0059 14.0362 93.4827 14.0362Z" fill="white"/>
<path d="M122.886 8.56396C123.572 8.56396 124.16 8.60889 124.65 8.69464C125.14 8.78449 125.536 8.87433 125.842 8.97234V16.4538C125.393 16.3884 124.883 16.3353 124.307 16.2904C123.739 16.2496 123.098 16.2251 122.379 16.2251C120.558 16.2251 119.235 16.7641 118.41 17.8423C117.593 18.9204 117.185 20.7621 117.185 23.3635V32.9031H109.965V9.15203H113.558L115.747 16.3231C116.343 13.4808 117.291 11.4798 118.589 10.3118C119.896 9.14794 121.326 8.56396 122.886 8.56396Z" fill="white"/>
<path d="M136.5 0.184326V32.9034H129.378V0.184326H136.5Z" fill="white"/>
<path d="M160.159 9.15221V15.1472H152.008V23.086C152.008 24.7317 152.286 25.8548 152.841 26.451C153.397 27.0513 154.446 27.3494 155.994 27.3494C156.864 27.3494 157.648 27.3086 158.346 27.2187C159.053 27.1207 159.673 27.0309 160.208 26.941V32.9033C159.641 33.0217 158.901 33.1483 157.987 33.279C157.08 33.4179 155.969 33.4914 154.654 33.4914C151.277 33.4914 148.806 32.7318 147.238 31.2045C145.67 29.6812 144.886 27.3004 144.886 24.0661V15.1472H140.133V9.15221H145.098L147.794 2.11182H152.008V9.15221H160.159Z" fill="white"/>
<path d="M182.567 9.15221V15.1472H174.416V23.086C174.416 24.7317 174.693 25.8548 175.249 26.451C175.804 27.0513 176.854 27.3494 178.401 27.3494C179.271 27.3494 180.055 27.3086 180.754 27.2187C181.46 27.1207 182.081 27.0309 182.616 26.941V32.9033C182.048 33.0217 181.309 33.1483 180.394 33.279C179.488 33.4179 178.377 33.4914 177.062 33.4914C173.685 33.4914 171.214 32.7318 169.646 31.2045C168.078 29.6812 167.294 27.3004 167.294 24.0661V15.1472H162.54V9.15221H167.506L170.201 2.11182H174.416V9.15221H182.567Z" fill="white"/>
<path d="M199.878 8.56396C200.564 8.56396 201.152 8.60889 201.642 8.69464C202.132 8.78449 202.528 8.87433 202.834 8.97234V16.4538C202.385 16.3884 201.875 16.3353 201.299 16.2904C200.731 16.2496 200.09 16.2251 199.371 16.2251C197.55 16.2251 196.227 16.7641 195.402 17.8423C194.585 18.9204 194.177 20.7621 194.177 23.3635V32.9031H186.957V9.15203H190.55L192.739 16.3231C193.336 13.4808 194.283 11.4798 195.582 10.3118C196.888 9.14794 198.318 8.56396 199.878 8.56396Z" fill="white"/>
</svg>
