<svg width="261" height="49" viewBox="0 0 261 49" fill="none" xmlns="http://www.w3.org/2000/svg">
<path d="M58.665 30.2111V29.3126C58.665 26.895 59.1714 24.7837 60.1842 22.9746C61.2051 21.1696 62.6712 19.773 64.5783 18.7929C66.4936 17.8046 68.7642 17.3064 71.39 17.3064C75.0368 17.3064 77.9077 18.213 79.9986 20.018C82.0894 21.8271 83.3146 24.2814 83.6739 27.3851H76.3232C75.7882 24.698 74.118 23.3504 71.3083 23.3504C69.6299 23.3504 68.3068 23.8812 67.3389 24.9348C66.367 25.9803 65.8851 27.5934 65.8851 29.77C65.8851 31.9507 66.367 33.5597 67.3389 34.6052C68.3068 35.6506 69.6299 36.1733 71.3083 36.1733C74.118 36.1733 75.8045 34.8298 76.3722 32.1386H83.7229C83.3636 35.2545 82.1384 37.717 80.0476 39.522C77.9567 41.3311 75.0695 42.2336 71.39 42.2336C68.7642 42.2336 66.4936 41.7313 64.5783 40.7308C62.6712 39.7303 61.2051 38.3377 60.1842 36.549C59.1714 34.7522 58.665 32.6409 58.665 30.2111Z" fill="black"/>
<path d="M98.9556 42.2336C96.2971 42.2336 94.0102 41.7436 92.0949 40.7635C90.1878 39.7752 88.7217 38.3745 87.7008 36.5654C86.688 34.7604 86.1816 32.6572 86.1816 30.2601V29.28C86.1816 26.8542 86.688 24.747 87.7008 22.9583C88.7217 21.1615 90.1878 19.773 92.0949 18.7929C94.0102 17.8046 96.2971 17.3064 98.9556 17.3064C101.61 17.3064 103.889 17.8046 105.784 18.7929C107.687 19.773 109.149 21.1615 110.161 22.9583C111.174 24.747 111.681 26.8542 111.681 29.28V30.2601C111.681 32.6572 111.174 34.7604 110.161 36.5654C109.149 38.3745 107.687 39.7752 105.784 40.7635C103.889 41.7436 101.61 42.2336 98.9556 42.2336ZM98.9556 36.2223C100.687 36.2223 102.043 35.6833 103.023 34.6052C104.011 33.5271 104.51 31.9017 104.51 29.721C104.51 27.577 104.011 25.9762 103.023 24.9185C102.043 23.8527 100.687 23.3177 98.9556 23.3177C97.2241 23.3177 95.8601 23.8527 94.8719 24.9185C93.8918 25.9762 93.4017 27.577 93.4017 29.721C93.4017 31.9017 93.8918 33.5271 94.8719 34.6052C95.8601 35.6833 97.2241 36.2223 98.9556 36.2223Z" fill="black"/>
<path d="M125.311 32.0082L130.734 17.8948H138.036L128.317 41.6459H122.207L112.537 17.8948H119.888L125.311 32.0082Z" fill="black"/>
<path d="M163.897 28.3325C163.897 29.4678 163.836 30.4683 163.718 31.3382H145.831C146.035 33.1922 146.598 34.5317 147.513 35.3566C148.428 36.1733 149.645 36.5817 151.172 36.5817C152.663 36.5817 153.77 36.3163 154.488 35.7813C155.207 35.2382 155.73 34.548 156.056 33.7067H163.489C163.248 35.2096 162.656 36.6103 161.708 37.9048C160.769 39.2035 159.462 40.2489 157.788 41.0412C156.122 41.8334 154.035 42.2336 151.532 42.2336C148.894 42.2336 146.631 41.7313 144.736 40.7308C142.841 39.7303 141.379 38.3377 140.359 36.549C139.346 34.7522 138.839 32.6409 138.839 30.2111V29.3126C138.839 26.895 139.346 24.7837 140.359 22.9746C141.379 21.1696 142.846 19.773 144.753 18.7929C146.668 17.8046 148.971 17.3064 151.662 17.3064C154.198 17.3064 156.375 17.7801 158.196 18.7275C160.026 19.6668 161.431 20.9614 162.411 22.6153C163.399 24.2733 163.897 26.1763 163.897 28.3325ZM151.483 22.7786C149.923 22.7786 148.665 23.1462 147.709 23.8731C146.762 24.6041 146.149 25.7761 145.88 27.3851H156.726C156.538 25.8088 155.999 24.649 155.109 23.9057C154.215 23.1543 153.006 22.7786 151.483 22.7786Z" fill="black"/>
<path d="M180.886 17.3064C181.572 17.3064 182.16 17.3513 182.65 17.4371C183.14 17.5269 183.536 17.6168 183.842 17.7148V25.1962C183.393 25.1309 182.883 25.0778 182.307 25.0329C181.739 24.992 181.098 24.9675 180.379 24.9675C178.558 24.9675 177.235 25.5066 176.41 26.5847C175.593 27.6628 175.185 29.5046 175.185 32.1059V41.6456H167.965V17.8945H171.558L173.747 25.0655C174.343 22.2232 175.291 20.2222 176.589 19.0542C177.896 17.8904 179.326 17.3064 180.886 17.3064Z" fill="black"/>
<path d="M194.5 8.92676V41.6458H187.378V8.92676H194.5Z" fill="black"/>
<path d="M218.159 17.8946V23.8896H210.008V31.8284C210.008 33.4742 210.286 34.5972 210.841 35.1934C211.397 35.7937 212.446 36.0918 213.994 36.0918C214.864 36.0918 215.648 36.051 216.346 35.9612C217.053 35.8631 217.673 35.7733 218.208 35.6835V41.6457C217.641 41.7642 216.901 41.8908 215.987 42.0214C215.08 42.1603 213.969 42.2338 212.654 42.2338C209.277 42.2338 206.806 41.4742 205.238 39.9469C203.67 38.4237 202.886 36.0428 202.886 32.8085V23.8896H198.133V17.8946H203.098L205.794 10.8542H210.008V17.8946H218.159Z" fill="black"/>
<path d="M240.567 17.8946V23.8896H232.416V31.8284C232.416 33.4742 232.693 34.5972 233.249 35.1934C233.804 35.7937 234.854 36.0918 236.401 36.0918C237.271 36.0918 238.055 36.051 238.754 35.9612C239.46 35.8631 240.081 35.7733 240.616 35.6835V41.6457C240.048 41.7642 239.309 41.8908 238.394 42.0214C237.488 42.1603 236.377 42.2338 235.062 42.2338C231.685 42.2338 229.214 41.4742 227.646 39.9469C226.078 38.4237 225.294 36.0428 225.294 32.8085V23.8896H220.54V17.8946H225.506L228.201 10.8542H232.416V17.8946H240.567Z" fill="black"/>
<path d="M257.878 17.3064C258.564 17.3064 259.152 17.3513 259.642 17.4371C260.132 17.5269 260.528 17.6168 260.834 17.7148V25.1962C260.385 25.1309 259.875 25.0778 259.299 25.0329C258.731 24.992 258.09 24.9675 257.371 24.9675C255.55 24.9675 254.227 25.5066 253.402 26.5847C252.585 27.6628 252.177 29.5046 252.177 32.1059V41.6456H244.957V17.8945H248.55L250.739 25.0655C251.336 22.2232 252.283 20.2222 253.582 19.0542C254.888 17.8904 256.318 17.3064 257.878 17.3064Z" fill="black"/>
<path d="M0.517357 20.9701L15.7336 3.20412C16.0005 2.89179 16.3128 2.63057 16.6649 2.41761C17.017 2.20466 17.3946 2.05417 17.795 1.96615C18.1982 1.87529 18.6042 1.85258 19.0131 1.89233C19.422 1.93492 19.8138 2.03998 20.1914 2.2075L41.5265 11.7989C41.606 11.8387 41.6231 11.8955 41.5777 11.9721L29.1156 32.1346L20.4896 34.0625L0.540073 21.149C0.463409 21.0979 0.457731 21.0383 0.517357 20.9701Z" fill="#7C3AED"/>
<path d="M0.517358 20.9701L15.7336 3.20412C16.0005 2.89179 16.3128 2.63057 16.6649 2.41761C17.017 2.20466 17.3946 2.05417 17.795 1.96615C18.1982 1.87529 18.6042 1.85258 19.0131 1.89233C19.4219 1.93492 19.8138 2.03998 20.1914 2.2075L41.5265 11.7989C41.606 11.8387 41.623 11.8955 41.5776 11.9721L29.1156 32.1345L20.4895 34.0625L0.540072 21.149C0.463408 21.0979 0.457731 21.0383 0.517358 20.9701Z" stroke="black" stroke-width="0.337723" stroke-miterlimit="10"/>
<path d="M2.22363 7.57974L33.63 0.560791L40.9642 33.3727L9.5606 40.3916L2.22363 7.57974Z" fill="white"/>
<path d="M2.22363 7.57959L33.63 0.560641L40.9641 33.3725L9.56059 40.3915L2.22363 7.57959Z" stroke="black" stroke-width="0.337723" stroke-miterlimit="10"/>
<path d="M0.480405 21.3024L6.49138 48.1828L47.7135 38.9775L41.6997 12.0971C41.6883 12.0488 41.66 12.0205 41.6117 12.0091C41.5663 11.9977 41.5265 12.0091 41.4953 12.046L26.5175 29.4883C24.6975 29.389 23.0279 29.7268 21.5458 30.5929L0.647928 21.1746C0.605338 21.1519 0.562747 21.1547 0.525835 21.186C0.486083 21.2144 0.471886 21.2541 0.480405 21.3024Z" fill="#7C3AED"/>
<path d="M0.480405 21.3024L6.49137 48.1828L47.7135 38.9775L41.6997 12.0971C41.6883 12.0488 41.6599 12.0205 41.6116 12.0091C41.5662 11.9977 41.5265 12.0091 41.4952 12.046L26.5175 29.4883C24.6975 29.3889 23.0279 29.7268 21.5457 30.5928L0.647929 21.1746C0.605338 21.1519 0.562747 21.1547 0.525835 21.186C0.486083 21.2144 0.471887 21.2541 0.480405 21.3024Z" stroke="black" stroke-width="0.337723" stroke-miterlimit="10"/>
<path d="M21.543 30.5898L6.49146 48.194" stroke="black" stroke-width="0.337723" stroke-miterlimit="10"/>
<path d="M26.5176 29.4797L47.7135 38.9775" stroke="black" stroke-width="0.337723" stroke-miterlimit="10"/>
</svg>
