<svg width="261" height="49" viewBox="0 0 261 49" fill="none" xmlns="http://www.w3.org/2000/svg">
<path d="M58.665 30.4686V29.5702C58.665 27.1526 59.1714 25.0413 60.1842 23.2322C61.2051 21.4272 62.6712 20.0306 64.5783 19.0505C66.4936 18.0622 68.7642 17.564 71.39 17.564C75.0368 17.564 77.9077 18.4706 79.9986 20.2756C82.0894 22.0847 83.3146 24.539 83.6739 27.6427H76.3232C75.7882 24.9556 74.118 23.6079 71.3083 23.6079C69.6299 23.6079 68.3068 24.1388 67.3389 25.1924C66.367 26.2379 65.8851 27.8509 65.8851 30.0276C65.8851 32.2083 66.367 33.8173 67.3389 34.8627C68.3068 35.9082 69.6299 36.4309 71.3083 36.4309C74.118 36.4309 75.8045 35.0873 76.3722 32.3962H83.7229C83.3636 35.5121 82.1384 37.9746 80.0476 39.7796C77.9567 41.5887 75.0695 42.4912 71.39 42.4912C68.7642 42.4912 66.4936 41.9889 64.5783 40.9884C62.6712 39.9879 61.2051 38.5953 60.1842 36.8066C59.1714 35.0098 58.665 32.8985 58.665 30.4686Z" fill="white"/>
<path d="M98.9556 42.4912C96.2971 42.4912 94.0102 42.0011 92.0949 41.021C90.1878 40.0328 88.7217 38.632 87.7008 36.8229C86.688 35.0179 86.1816 32.9148 86.1816 30.5176V29.5375C86.1816 27.1118 86.688 25.0046 87.7008 23.2159C88.7217 21.419 90.1878 20.0306 92.0949 19.0505C94.0102 18.0622 96.2971 17.564 98.9556 17.564C101.61 17.564 103.889 18.0622 105.784 19.0505C107.687 20.0306 109.149 21.419 110.161 23.2159C111.174 25.0046 111.681 27.1118 111.681 29.5375V30.5176C111.681 32.9148 111.174 35.0179 110.161 36.8229C109.149 38.632 107.687 40.0328 105.784 41.021C103.889 42.0011 101.61 42.4912 98.9556 42.4912ZM98.9556 36.4799C100.687 36.4799 102.043 35.9409 103.023 34.8627C104.011 33.7846 104.51 32.1593 104.51 29.9786C104.51 27.8346 104.011 26.2338 103.023 25.1761C102.043 24.1102 100.687 23.5752 98.9556 23.5752C97.2241 23.5752 95.8601 24.1102 94.8719 25.1761C93.8918 26.2338 93.4017 27.8346 93.4017 29.9786C93.4017 32.1593 93.8918 33.7846 94.8719 34.8627C95.8601 35.9409 97.2241 36.4799 98.9556 36.4799Z" fill="white"/>
<path d="M125.311 32.2658L130.734 18.1523H138.036L128.317 41.9034H122.207L112.537 18.1523H119.888L125.311 32.2658Z" fill="white"/>
<path d="M163.897 28.5901C163.897 29.7254 163.836 30.7259 163.718 31.5957H145.831C146.035 33.4498 146.598 34.7892 147.513 35.6142C148.428 36.4309 149.645 36.8393 151.172 36.8393C152.663 36.8393 153.77 36.5738 154.488 36.0389C155.207 35.4957 155.73 34.8056 156.056 33.9643H163.489C163.248 35.4671 162.656 36.8679 161.708 38.1624C160.769 39.461 159.462 40.5065 157.788 41.2987C156.122 42.091 154.035 42.4912 151.532 42.4912C148.894 42.4912 146.631 41.9889 144.736 40.9884C142.841 39.9879 141.379 38.5953 140.359 36.8066C139.346 35.0098 138.839 32.8985 138.839 30.4686V29.5702C138.839 27.1526 139.346 25.0413 140.359 23.2322C141.379 21.4272 142.846 20.0306 144.753 19.0505C146.668 18.0622 148.971 17.564 151.662 17.564C154.198 17.564 156.375 18.0377 158.196 18.9851C160.026 19.9244 161.431 21.2189 162.411 22.8728C163.399 24.5308 163.897 26.4339 163.897 28.5901ZM151.483 23.0362C149.923 23.0362 148.665 23.4037 147.709 24.1306C146.762 24.8616 146.149 26.0337 145.88 27.6427H156.726C156.538 26.0663 155.999 24.9066 155.109 24.1633C154.215 23.4119 153.006 23.0362 151.483 23.0362Z" fill="white"/>
<path d="M180.886 17.564C181.572 17.564 182.16 17.6089 182.65 17.6946C183.14 17.7845 183.536 17.8743 183.842 17.9723V25.4538C183.393 25.3884 182.883 25.3353 182.307 25.2904C181.739 25.2496 181.098 25.2251 180.379 25.2251C178.558 25.2251 177.235 25.7641 176.41 26.8423C175.593 27.9204 175.185 29.7621 175.185 32.3635V41.9031H167.965V18.152H171.558L173.747 25.3231C174.343 22.4808 175.291 20.4798 176.589 19.3118C177.896 18.1479 179.326 17.564 180.886 17.564Z" fill="white"/>
<path d="M194.5 9.18433V41.9034H187.378V9.18433H194.5Z" fill="white"/>
<path d="M218.159 18.1522V24.1472H210.008V32.086C210.008 33.7317 210.286 34.8548 210.841 35.451C211.397 36.0513 212.446 36.3494 213.994 36.3494C214.864 36.3494 215.648 36.3086 216.346 36.2187C217.053 36.1207 217.673 36.0309 218.208 35.941V41.9033C217.641 42.0217 216.901 42.1483 215.987 42.279C215.08 42.4179 213.969 42.4914 212.654 42.4914C209.277 42.4914 206.806 41.7318 205.238 40.2045C203.67 38.6812 202.886 36.3004 202.886 33.0661V24.1472H198.133V18.1522H203.098L205.794 11.1118H210.008V18.1522H218.159Z" fill="white"/>
<path d="M240.567 18.1522V24.1472H232.416V32.086C232.416 33.7317 232.693 34.8548 233.249 35.451C233.804 36.0513 234.854 36.3494 236.401 36.3494C237.271 36.3494 238.055 36.3086 238.754 36.2187C239.46 36.1207 240.081 36.0309 240.616 35.941V41.9033C240.048 42.0217 239.309 42.1483 238.394 42.279C237.488 42.4179 236.377 42.4914 235.062 42.4914C231.685 42.4914 229.214 41.7318 227.646 40.2045C226.078 38.6812 225.294 36.3004 225.294 33.0661V24.1472H220.54V18.1522H225.506L228.201 11.1118H232.416V18.1522H240.567Z" fill="white"/>
<path d="M257.878 17.564C258.564 17.564 259.152 17.6089 259.642 17.6946C260.132 17.7845 260.528 17.8743 260.834 17.9723V25.4538C260.385 25.3884 259.875 25.3353 259.299 25.2904C258.731 25.2496 258.09 25.2251 257.371 25.2251C255.55 25.2251 254.227 25.7641 253.402 26.8423C252.585 27.9204 252.177 29.7621 252.177 32.3635V41.9031H244.957V18.152H248.55L250.739 25.3231C251.336 22.4808 252.283 20.4798 253.582 19.3118C254.888 18.1479 256.318 17.564 257.878 17.564Z" fill="white"/>
<path d="M0.517357 21.2277L15.7336 3.46169C16.0005 3.14936 16.3128 2.88814 16.6649 2.67518C17.017 2.46223 17.3946 2.31174 17.795 2.22372C18.1982 2.13286 18.6042 2.11015 19.0131 2.1499C19.422 2.19249 19.8138 2.29754 20.1914 2.46507L41.5265 12.0565C41.606 12.0963 41.6231 12.153 41.5777 12.2297L29.1156 32.3921L20.4896 34.3201L0.540073 21.4066C0.463409 21.3555 0.457731 21.2958 0.517357 21.2277Z" fill="#7C3AED"/>
<path d="M0.517358 21.2277L15.7336 3.46169C16.0005 3.14936 16.3128 2.88814 16.6649 2.67518C17.017 2.46223 17.3946 2.31174 17.795 2.22372C18.1982 2.13286 18.6042 2.11015 19.0131 2.1499C19.4219 2.19249 19.8138 2.29755 20.1914 2.46507L41.5265 12.0565C41.606 12.0962 41.623 12.153 41.5776 12.2297L29.1156 32.3921L20.4895 34.3201L0.540072 21.4066C0.463408 21.3554 0.457731 21.2958 0.517358 21.2277Z" stroke="black" stroke-width="0.337723" stroke-miterlimit="10"/>
<path d="M2.22363 7.83731L33.63 0.818359L40.9642 33.6303L9.5606 40.6492L2.22363 7.83731Z" fill="white"/>
<path d="M2.22363 7.83716L33.63 0.81821L40.9641 33.6301L9.56059 40.649L2.22363 7.83716Z" stroke="black" stroke-width="0.337723" stroke-miterlimit="10"/>
<path d="M0.480405 21.56L6.49138 48.4404L47.7135 39.2351L41.6997 12.3547C41.6883 12.3064 41.66 12.278 41.6117 12.2667C41.5663 12.2553 41.5265 12.2667 41.4953 12.3036L26.5175 29.7459C24.6975 29.6465 23.0279 29.9844 21.5458 30.8504L0.647928 21.4322C0.605338 21.4095 0.562747 21.4123 0.525835 21.4435C0.486083 21.4719 0.471886 21.5117 0.480405 21.56Z" fill="#7C3AED"/>
<path d="M0.480405 21.56L6.49137 48.4403L47.7135 39.2351L41.6997 12.3547C41.6883 12.3064 41.6599 12.278 41.6116 12.2667C41.5662 12.2553 41.5265 12.2667 41.4952 12.3036L26.5175 29.7459C24.6975 29.6465 23.0279 29.9844 21.5457 30.8504L0.647929 21.4322C0.605338 21.4095 0.562747 21.4123 0.525835 21.4435C0.486083 21.4719 0.471887 21.5117 0.480405 21.56Z" stroke="black" stroke-width="0.337723" stroke-miterlimit="10"/>
<path d="M21.543 30.8474L6.49146 48.4516" stroke="black" stroke-width="0.337723" stroke-miterlimit="10"/>
<path d="M26.5176 29.7373L47.7135 39.235" stroke="black" stroke-width="0.337723" stroke-miterlimit="10"/>
</svg>
