<svg width="1001" height="1000" viewBox="0 0 1001 1000" fill="none" xmlns="http://www.w3.org/2000/svg">
<rect width="1000" height="1000" transform="translate(0.660889)" fill="black"/>
<path d="M219.808 504.382V495.454C219.808 471.43 224.84 450.449 234.904 432.472C245.049 414.535 259.618 400.656 278.57 390.916C297.603 381.095 320.166 376.145 346.26 376.145C382.499 376.145 411.028 385.154 431.806 403.091C452.584 421.068 464.758 445.458 468.329 476.3H395.283C389.966 449.597 373.368 436.205 345.448 436.205C328.769 436.205 315.621 441.481 306.003 451.951C296.345 462.34 291.556 478.37 291.556 500C291.556 521.67 296.345 537.659 306.003 548.048C315.621 558.437 328.769 563.632 345.448 563.632C373.368 563.632 390.129 550.28 395.77 523.537H468.816C465.245 554.501 453.071 578.971 432.293 596.909C411.515 614.886 382.824 623.855 346.26 623.855C320.166 623.855 297.603 618.863 278.57 608.921C259.618 598.978 245.049 585.14 234.904 567.365C224.84 549.509 219.808 528.529 219.808 504.382Z" fill="white"/>
<path d="M509.661 480.377L597.308 378.043C598.845 376.244 600.644 374.74 602.672 373.513C604.7 372.286 606.875 371.42 609.181 370.913C611.504 370.389 613.843 370.258 616.198 370.487C618.553 370.733 620.81 371.338 622.985 372.303L745.877 427.55C746.335 427.779 746.433 428.106 746.171 428.548L674.389 544.685L624.702 555.79L509.792 481.407C509.35 481.113 509.317 480.769 509.661 480.377Z" fill="#7C3AED"/>
<path d="M509.661 480.377L597.307 378.043C598.845 376.244 600.644 374.74 602.672 373.513C604.7 372.286 606.875 371.42 609.181 370.913C611.504 370.389 613.842 370.258 616.198 370.487C618.553 370.733 620.81 371.338 622.985 372.303L745.877 427.55C746.334 427.779 746.433 428.106 746.171 428.548L674.389 544.685L624.702 555.79L509.792 481.407C509.35 481.113 509.317 480.769 509.661 480.377Z" stroke="black" stroke-width="0.337723" stroke-miterlimit="10"/>
<path d="M519.489 403.247L700.393 362.817L742.638 551.816L561.751 592.246L519.489 403.247Z" fill="white"/>
<path d="M519.489 403.248L700.392 362.818L742.637 551.817L561.751 592.247L519.489 403.248Z" stroke="black" stroke-width="0.337723" stroke-miterlimit="10"/>
<path d="M509.448 482.29L544.071 637.123L781.514 584.1L746.874 429.267C746.809 428.989 746.645 428.825 746.367 428.76C746.105 428.694 745.876 428.76 745.696 428.972L659.424 529.442C648.94 528.869 639.323 530.815 630.786 535.804L510.413 481.554C510.167 481.423 509.922 481.439 509.709 481.619C509.48 481.783 509.399 482.012 509.448 482.29Z" fill="#7C3AED"/>
<path d="M509.448 482.29L544.071 637.123L781.514 584.1L746.874 429.267C746.808 428.989 746.645 428.825 746.367 428.76C746.105 428.694 745.876 428.76 745.696 428.972L659.423 529.441C648.94 528.869 639.323 530.815 630.786 535.804L510.413 481.554C510.167 481.423 509.922 481.439 509.709 481.619C509.48 481.783 509.399 482.012 509.448 482.29Z" stroke="black" stroke-width="0.337723" stroke-miterlimit="10"/>
<path d="M630.77 535.788L544.072 637.189" stroke="black" stroke-width="0.337723" stroke-miterlimit="10"/>
<path d="M659.423 529.394L781.514 584.102" stroke="black" stroke-width="0.337723" stroke-miterlimit="10"/>
</svg>
