<svg width="1001" height="1000" viewBox="0 0 1001 1000" fill="none" xmlns="http://www.w3.org/2000/svg">
<rect width="1000" height="1000" transform="translate(0.949097)" fill="black"/>
<path d="M268.305 466.386L418.444 291.088C421.078 288.006 424.16 285.429 427.634 283.327C431.108 281.226 434.834 279.741 438.784 278.873C442.763 277.976 446.769 277.752 450.803 278.144C454.838 278.565 458.704 279.601 462.43 281.254L672.944 375.893C673.728 376.285 673.897 376.846 673.448 377.602L550.485 576.545L465.372 595.569L268.529 468.151C267.773 467.646 267.717 467.058 268.305 466.386Z" fill="#7C3AED"/>
<path d="M268.305 466.385L418.444 291.088C421.078 288.006 424.159 285.429 427.633 283.327C431.108 281.226 434.834 279.741 438.784 278.873C442.762 277.976 446.769 277.752 450.803 278.144C454.837 278.565 458.703 279.601 462.43 281.254L672.944 375.893C673.728 376.285 673.896 376.846 673.448 377.602L550.485 576.545L465.371 595.568L268.529 468.15C267.773 467.646 267.717 467.058 268.305 466.385Z" stroke="black" stroke-width="0.337723" stroke-miterlimit="10"/>
<path d="M285.142 334.262L595.029 265.006L667.395 588.761L357.536 658.018L285.142 334.262Z" fill="white"/>
<path d="M285.142 334.263L595.029 265.007L667.395 588.763L357.536 658.019L285.142 334.263Z" stroke="black" stroke-width="0.337723" stroke-miterlimit="10"/>
<path d="M267.94 469.663L327.251 734.892L733.991 644.064L674.652 378.834C674.54 378.358 674.26 378.077 673.784 377.965C673.335 377.853 672.943 377.965 672.635 378.33L524.849 550.433C506.891 549.453 490.417 552.787 475.793 561.332L269.593 468.402C269.173 468.178 268.753 468.206 268.389 468.514C267.996 468.794 267.856 469.186 267.94 469.663Z" fill="#7C3AED"/>
<path d="M267.94 469.662L327.251 734.892L733.99 644.063L674.652 378.834C674.54 378.358 674.259 378.077 673.783 377.965C673.335 377.853 672.943 377.965 672.635 378.33L524.849 550.433C506.891 549.453 490.417 552.787 475.793 561.332L269.593 468.402C269.173 468.178 268.753 468.206 268.389 468.514C267.996 468.794 267.856 469.186 267.94 469.662Z" stroke="black" stroke-width="0.337723" stroke-miterlimit="10"/>
<path d="M475.765 561.304L327.251 735.005" stroke="black" stroke-width="0.337723" stroke-miterlimit="10"/>
<path d="M524.849 550.352L733.99 644.066" stroke="black" stroke-width="0.337723" stroke-miterlimit="10"/>
</svg>
