<svg width="249" height="44" viewBox="0 0 249 44" fill="none" xmlns="http://www.w3.org/2000/svg">
<path d="M0.060791 26.4263V25.3227C0.060791 22.3531 0.682805 19.7597 1.92683 17.5375C3.18089 15.3203 4.98172 13.6048 7.32431 12.4009C9.67692 11.1869 12.466 10.575 15.6914 10.575C20.1709 10.575 23.6973 11.6886 26.2656 13.9057C28.8339 16.1279 30.3388 19.1427 30.7802 22.955H21.751C21.0939 19.6543 19.0422 17.999 15.5911 17.999C13.5294 17.999 11.9041 18.6511 10.7153 19.9453C9.52142 21.2294 8.9295 23.2109 8.9295 25.8845C8.9295 28.5632 9.52142 30.5396 10.7153 31.8237C11.9041 33.1079 13.5294 33.75 15.5911 33.75C19.0422 33.75 21.1139 32.0996 21.8112 28.7939H30.8404C30.399 32.6213 28.8941 35.6461 26.3258 37.8633C23.7575 40.0855 20.211 41.1941 15.6914 41.1941C12.466 41.1941 9.67692 40.5771 7.32431 39.3481C4.98172 38.1191 3.18089 36.4086 1.92683 34.2115C0.682805 32.0043 0.060791 29.4109 0.060791 26.4263Z" fill="black"/>
<path d="M81.9247 28.6335L88.5862 11.2974H97.5553L85.6166 40.4718H78.1123L66.2339 11.2974H75.2631L81.9247 28.6335Z" fill="black"/>
<path d="M129.322 24.1188C129.322 25.5133 129.246 26.7423 129.101 27.8107H107.13C107.381 30.0881 108.073 31.7334 109.196 32.7467C110.32 33.75 111.815 34.2516 113.691 34.2516C115.522 34.2516 116.881 33.9255 117.764 33.2684C118.647 32.6013 119.289 31.7535 119.69 30.7202H128.82C128.524 32.5661 127.797 34.2867 126.633 35.8769C125.479 37.472 123.874 38.7562 121.817 39.7293C119.771 40.7025 117.207 41.1941 114.132 41.1941C110.892 41.1941 108.113 40.5771 105.785 39.3481C103.458 38.1191 101.662 36.4086 100.408 34.2115C99.164 32.0043 98.542 29.4109 98.542 26.4263V25.3227C98.542 22.3531 99.164 19.7597 100.408 17.5375C101.662 15.3203 103.463 13.6048 105.806 12.4009C108.158 11.1869 110.987 10.575 114.293 10.575C117.408 10.575 120.082 11.1568 122.319 12.3206C124.566 13.4743 126.292 15.0645 127.496 17.0961C128.71 19.1327 129.322 21.4702 129.322 24.1188ZM114.072 17.2967C112.156 17.2967 110.611 17.7482 109.437 18.6411C108.273 19.539 107.521 20.9786 107.19 22.955H120.513C120.282 21.0188 119.62 19.5942 118.527 18.6812C117.428 17.7582 115.943 17.2967 114.072 17.2967Z" fill="black"/>
<path d="M150.189 10.575C151.032 10.575 151.754 10.6301 152.356 10.7355C152.958 10.8458 153.445 10.9562 153.821 11.0766V20.2663C153.269 20.1861 152.642 20.1209 151.935 20.0657C151.237 20.0155 150.45 19.9854 149.567 19.9854C147.33 19.9854 145.704 20.6476 144.691 21.9718C143.688 23.2961 143.186 25.5585 143.186 28.7538V40.4717H134.318V11.2973H138.732L141.421 20.1058C142.153 16.6145 143.317 14.1565 144.912 12.7219C146.517 11.2923 148.273 10.575 150.189 10.575Z" fill="black"/>
<path d="M166.912 0.281738V40.4718H158.164V0.281738H166.912Z" fill="black"/>
<path d="M195.974 11.2972V18.661H185.961V28.4126C185.961 30.4341 186.303 31.8136 186.985 32.546C187.667 33.2833 188.956 33.6495 190.857 33.6495C191.926 33.6495 192.889 33.5994 193.747 33.489C194.615 33.3686 195.377 33.2583 196.034 33.1479V40.4716C195.337 40.6171 194.429 40.7726 193.305 40.9331C192.192 41.1037 190.827 41.194 189.212 41.194C185.064 41.194 182.029 40.2609 180.103 38.3849C178.176 36.5138 177.213 33.5893 177.213 29.6165V18.661H171.374V11.2972H177.474L180.785 2.64917H185.961V11.2972H195.974Z" fill="black"/>
<path d="M223.498 11.2972V18.661H213.486V28.4126C213.486 30.4341 213.827 31.8136 214.509 32.546C215.191 33.2833 216.48 33.6495 218.382 33.6495C219.45 33.6495 220.413 33.5994 221.271 33.489C222.139 33.3686 222.901 33.2583 223.558 33.1479V40.4716C222.861 40.6171 221.953 40.7726 220.829 40.9331C219.716 41.1037 218.351 41.194 216.736 41.194C212.588 41.194 209.553 40.2609 207.627 38.3849C205.7 36.5138 204.737 33.5893 204.737 29.6165V18.661H198.898V11.2972H204.998L208.309 2.64917H213.486V11.2972H223.498Z" fill="black"/>
<path d="M244.762 10.575C245.604 10.575 246.327 10.6301 246.929 10.7355C247.531 10.8458 248.017 10.9562 248.394 11.0766V20.2663C247.842 20.1861 247.215 20.1209 246.507 20.0657C245.81 20.0155 245.023 19.9854 244.14 19.9854C241.903 19.9854 240.277 20.6476 239.264 21.9718C238.261 23.2961 237.759 25.5585 237.759 28.7538V40.4717H228.89V11.2973H233.305L235.993 20.1058C236.726 16.6145 237.89 14.1565 239.485 12.7219C241.09 11.2923 242.846 10.575 244.762 10.575Z" fill="black"/>
<path d="M33.889 23.459L44.7229 10.8097C44.913 10.5873 45.1354 10.4013 45.386 10.2497C45.6367 10.0981 45.9056 9.99092 46.1906 9.92825C46.4777 9.86356 46.7668 9.84738 47.0579 9.87569C47.349 9.90601 47.628 9.98081 47.8969 10.1001L63.0874 16.9291C63.144 16.9574 63.1561 16.9979 63.1238 17.0525L54.2509 31.408L48.1092 32.7807L33.9052 23.5863C33.8506 23.55 33.8466 23.5075 33.889 23.459Z" fill="#7C3AED"/>
<path d="M33.8891 23.459L44.7229 10.8097C44.913 10.5873 45.1353 10.4013 45.386 10.2497C45.6367 10.0981 45.9056 9.99092 46.1906 9.92825C46.4777 9.86356 46.7668 9.84738 47.0579 9.87569C47.349 9.90601 47.628 9.98081 47.8969 10.1001L63.0874 16.9291C63.144 16.9574 63.1561 16.9979 63.1237 17.0524L54.2508 31.408L48.1091 32.7807L33.9052 23.5863C33.8506 23.5499 33.8466 23.5075 33.8891 23.459Z" stroke="black" stroke-width="0.337723" stroke-miterlimit="10"/>
<path d="M35.104 13.9252L57.4652 8.92773L62.6871 32.2896L40.3279 37.2871L35.104 13.9252Z" fill="white"/>
<path d="M35.104 13.9253L57.4652 8.92784L62.687 32.2897L40.3279 37.2872L35.104 13.9253Z" stroke="black" stroke-width="0.337723" stroke-miterlimit="10"/>
<path d="M33.8628 23.6955L38.1426 42.8342L67.4925 36.2801L63.2107 17.1414C63.2026 17.107 63.1824 17.0868 63.148 17.0787C63.1157 17.0706 63.0874 17.0787 63.0652 17.105L52.4011 29.5238C51.1052 29.4531 49.9165 29.6936 48.8612 30.3102L33.9821 23.6045C33.9517 23.5883 33.9214 23.5903 33.8951 23.6126C33.8668 23.6328 33.8567 23.6611 33.8628 23.6955Z" fill="#7C3AED"/>
<path d="M33.8628 23.6955L38.1426 42.8342L67.4925 36.2801L63.2107 17.1414C63.2026 17.107 63.1824 17.0868 63.148 17.0787C63.1157 17.0706 63.0874 17.0787 63.0651 17.105L52.4011 29.5238C51.1052 29.453 49.9165 29.6936 48.8612 30.3102L33.9821 23.6045C33.9517 23.5883 33.9214 23.5903 33.8951 23.6126C33.8668 23.6328 33.8567 23.6611 33.8628 23.6955Z" stroke="black" stroke-width="0.337723" stroke-miterlimit="10"/>
<path d="M48.8592 30.3083L38.1426 42.8424" stroke="black" stroke-width="0.337723" stroke-miterlimit="10"/>
<path d="M52.4011 29.5178L67.4925 36.2801" stroke="black" stroke-width="0.337723" stroke-miterlimit="10"/>
</svg>
