<svg width="249" height="44" viewBox="0 0 249 44" fill="none" xmlns="http://www.w3.org/2000/svg">
<path d="M0.060791 26.9851V25.8815C0.060791 22.9119 0.682805 20.3185 1.92683 18.0963C3.18089 15.8792 4.98172 14.1636 7.32431 12.9597C9.67692 11.7458 12.466 11.1338 15.6914 11.1338C20.1709 11.1338 23.6973 12.2474 26.2656 14.4646C28.8339 16.6868 30.3388 19.7015 30.7802 23.5139H21.751C21.0939 20.2132 19.0422 18.5578 15.5911 18.5578C13.5294 18.5578 11.9041 19.2099 10.7153 20.5041C9.52142 21.7883 8.9295 23.7697 8.9295 26.4434C8.9295 29.122 9.52142 31.0984 10.7153 32.3826C11.9041 33.6667 13.5294 34.3088 15.5911 34.3088C19.0422 34.3088 21.1139 32.6585 21.8112 29.3528H30.8404C30.399 33.1802 28.8941 36.205 26.3258 38.4221C23.7575 40.6443 20.211 41.7529 15.6914 41.7529C12.466 41.7529 9.67692 41.1359 7.32431 39.9069C4.98172 38.678 3.18089 36.9674 1.92683 34.7703C0.682805 32.5632 0.060791 29.9698 0.060791 26.9851Z" fill="white"/>
<path d="M81.9247 29.1923L88.5862 11.8562H97.5553L85.6166 41.0306H78.1123L66.2339 11.8562H75.2631L81.9247 29.1923Z" fill="white"/>
<path d="M129.322 24.6776C129.322 26.0721 129.246 27.3011 129.101 28.3696H107.13C107.381 30.647 108.073 32.2923 109.196 33.3056C110.32 34.3088 111.815 34.8104 113.691 34.8104C115.522 34.8104 116.881 34.4844 117.764 33.8273C118.647 33.1601 119.289 32.3124 119.69 31.279H128.82C128.524 33.125 127.797 34.8456 126.633 36.4357C125.479 38.0309 123.874 39.315 121.817 40.2882C119.771 41.2613 117.207 41.7529 114.132 41.7529C110.892 41.7529 108.113 41.1359 105.785 39.9069C103.458 38.678 101.662 36.9674 100.408 34.7703C99.164 32.5632 98.542 29.9698 98.542 26.9851V25.8815C98.542 22.9119 99.164 20.3185 100.408 18.0963C101.662 15.8792 103.463 14.1636 105.806 12.9597C108.158 11.7458 110.987 11.1338 114.293 11.1338C117.408 11.1338 120.082 11.7157 122.319 12.8794C124.566 14.0332 126.292 15.6233 127.496 17.6549C128.71 19.6915 129.322 22.0291 129.322 24.6776ZM114.072 17.8555C112.156 17.8555 110.611 18.307 109.437 19.1999C108.273 20.0978 107.521 21.5375 107.19 23.5139H120.513C120.282 21.5776 119.62 20.153 118.527 19.24C117.428 18.317 115.943 17.8555 114.072 17.8555Z" fill="white"/>
<path d="M150.189 11.1338C151.032 11.1338 151.754 11.189 152.356 11.2943C152.958 11.4047 153.445 11.515 153.821 11.6354V20.8252C153.269 20.7449 152.642 20.6797 151.935 20.6245C151.237 20.5744 150.45 20.5443 149.567 20.5443C147.33 20.5443 145.704 21.2064 144.691 22.5307C143.688 23.855 143.186 26.1173 143.186 29.3126V41.0306H134.318V11.8561H138.732L141.421 20.6646C142.153 17.1733 143.317 14.7154 144.912 13.2807C146.517 11.8511 148.273 11.1338 150.189 11.1338Z" fill="white"/>
<path d="M166.912 0.840576V41.0307H158.164V0.840576H166.912Z" fill="white"/>
<path d="M195.974 11.856V19.2198H185.961V28.9714C185.961 30.993 186.303 32.3724 186.985 33.1048C187.667 33.8422 188.956 34.2084 190.857 34.2084C191.926 34.2084 192.889 34.1582 193.747 34.0478C194.615 33.9275 195.377 33.8171 196.034 33.7067V41.0305C195.337 41.1759 194.429 41.3314 193.305 41.4919C192.192 41.6625 190.827 41.7528 189.212 41.7528C185.064 41.7528 182.029 40.8198 180.103 38.9437C178.176 37.0726 177.213 34.1482 177.213 30.1753V19.2198H171.374V11.856H177.474L180.785 3.20801H185.961V11.856H195.974Z" fill="white"/>
<path d="M223.498 11.856V19.2198H213.486V28.9714C213.486 30.993 213.827 32.3724 214.509 33.1048C215.191 33.8422 216.48 34.2084 218.382 34.2084C219.45 34.2084 220.413 34.1582 221.271 34.0478C222.139 33.9275 222.901 33.8171 223.558 33.7067V41.0305C222.861 41.1759 221.953 41.3314 220.829 41.4919C219.716 41.6625 218.351 41.7528 216.736 41.7528C212.588 41.7528 209.553 40.8198 207.627 38.9437C205.7 37.0726 204.737 34.1482 204.737 30.1753V19.2198H198.898V11.856H204.998L208.309 3.20801H213.486V11.856H223.498Z" fill="white"/>
<path d="M244.762 11.1338C245.604 11.1338 246.327 11.189 246.929 11.2943C247.531 11.4047 248.017 11.515 248.394 11.6354V20.8252C247.842 20.7449 247.215 20.6797 246.507 20.6245C245.81 20.5744 245.023 20.5443 244.14 20.5443C241.903 20.5443 240.277 21.2064 239.264 22.5307C238.261 23.855 237.759 26.1173 237.759 29.3126V41.0306H228.89V11.8561H233.305L235.993 20.6646C236.726 17.1733 237.89 14.7154 239.485 13.2807C241.09 11.8511 242.846 11.1338 244.762 11.1338Z" fill="white"/>
<path d="M33.889 24.0178L44.7229 11.3685C44.913 11.1461 45.1354 10.9601 45.386 10.8085C45.6367 10.6569 45.9056 10.5498 46.1906 10.4871C46.4777 10.4224 46.7668 10.4062 47.0579 10.4345C47.349 10.4648 47.628 10.5396 47.8969 10.6589L63.0874 17.488C63.144 17.5163 63.1561 17.5567 63.1238 17.6113L54.2509 31.9669L48.1092 33.3395L33.9052 24.1452C33.8506 24.1088 33.8466 24.0663 33.889 24.0178Z" fill="#7C3AED"/>
<path d="M33.8891 24.0178L44.7229 11.3685C44.913 11.1461 45.1353 10.9601 45.386 10.8085C45.6367 10.6569 45.9056 10.5498 46.1906 10.4871C46.4777 10.4224 46.7668 10.4062 47.0579 10.4345C47.349 10.4648 47.628 10.5396 47.8969 10.6589L63.0874 17.488C63.144 17.5163 63.1561 17.5567 63.1237 17.6113L54.2508 31.9668L48.1091 33.3395L33.9052 24.1452C33.8506 24.1088 33.8466 24.0663 33.8891 24.0178Z" stroke="black" stroke-width="0.337723" stroke-miterlimit="10"/>
<path d="M35.104 14.484L57.4652 9.48657L62.6871 32.8485L40.3279 37.8459L35.104 14.484Z" fill="white"/>
<path d="M35.104 14.4841L57.4652 9.48667L62.687 32.8486L40.3279 37.846L35.104 14.4841Z" stroke="black" stroke-width="0.337723" stroke-miterlimit="10"/>
<path d="M33.8628 24.2543L38.1426 43.393L67.4925 36.8389L63.2107 17.7002C63.2026 17.6658 63.1824 17.6456 63.148 17.6375C63.1157 17.6294 63.0874 17.6375 63.0652 17.6638L52.4011 30.0826C51.1052 30.0119 49.9165 30.2525 48.8612 30.8691L33.9821 24.1633C33.9517 24.1472 33.9214 24.1492 33.8951 24.1714C33.8668 24.1916 33.8567 24.2199 33.8628 24.2543Z" fill="#7C3AED"/>
<path d="M33.8628 24.2543L38.1426 43.393L67.4925 36.8389L63.2107 17.7002C63.2026 17.6658 63.1824 17.6456 63.148 17.6375C63.1157 17.6294 63.0874 17.6375 63.0651 17.6638L52.4011 30.0826C51.1052 30.0119 49.9165 30.2524 48.8612 30.869L33.9821 24.1633C33.9517 24.1471 33.9214 24.1492 33.8951 24.1714C33.8668 24.1916 33.8567 24.2199 33.8628 24.2543Z" stroke="black" stroke-width="0.337723" stroke-miterlimit="10"/>
<path d="M48.8592 30.8672L38.1426 43.4013" stroke="black" stroke-width="0.337723" stroke-miterlimit="10"/>
<path d="M52.4011 30.0767L67.4925 36.839" stroke="black" stroke-width="0.337723" stroke-miterlimit="10"/>
</svg>
